<svg width="58" height="46" viewBox="0 0 58 46" fill="none" xmlns="http://www.w3.org/2000/svg">
<g clipPath="url(#clip0_15_107)">
<circle cx="29.5" cy="17.5" r="17.5" fill="#DD650E"/>
<circle cx="29.5" cy="17.5" r="12.5" fill="#FAC610"/>
<path d="M14.8227 25.5823C15.6113 24.3682 17.3887 24.3682 18.1773 25.5823L26.1847 37.9106C27.0489 39.2411 26.094 41 24.5075 41H8.49254C6.90597 41 5.95107 39.2411 6.81529 37.9106L14.8227 25.5823Z" fill="#ABACAE"/>
<path d="M39.8227 25.5823C40.6113 24.3682 42.3887 24.3682 43.1773 25.5823L51.1847 37.9106C52.0489 39.2411 51.094 41 49.5075 41H33.4925C31.906 41 30.9511 39.2411 31.8153 37.9106L39.8227 25.5823Z" fill="#A4BACF"/>
<path d="M8.82274 30.5823C9.61134 29.3682 11.3887 29.3682 12.1773 30.5823L20.1847 42.9106C21.0489 44.2411 20.094 46 18.5075 46H2.49254C0.905971 46 -0.0489255 44.2411 0.815287 42.9106L8.82274 30.5823Z" fill="#545E6D"/>
<path d="M45.8227 30.5823C46.6113 29.3682 48.3887 29.3682 49.1773 30.5823L57.1847 42.9106C58.0489 44.2411 57.094 46 55.5075 46H39.4925C37.906 46 36.9511 44.2411 37.8153 42.9106L45.8227 30.5823Z" fill="#5E769A"/>
<path d="M27.2897 18.8212C28.0683 17.537 29.9317 17.537 30.7103 18.8212L45.3456 42.9632C46.1536 44.2961 45.194 46 43.6353 46H14.3647C12.806 46 11.8464 44.2961 12.6544 42.9632L27.2897 18.8212Z" fill="#364C6C"/>
</g>
<defs>
<clipPath id="clip0_15_107">
<rect width="58" height="46" fill="white"/>
</clipPath>
</defs>
</svg>
